<svg width="20" height="20" viewBox="0 0 20 20" fill="none" xmlns="http://www.w3.org/2000/svg">
<path fill-rule="evenodd" clip-rule="evenodd" d="M9.16683 2.5L2.33826 10.1319C2.1742 10.3153 2.0835 10.5527 2.0835 10.7987V12C2.0835 12.8655 2.36421 13.7076 2.8835 14.4L2.92491 14.4552C3.18983 14.8085 3.5642 15.0641 3.98963 15.1823L10.2111 16.9105C10.59 17.0157 10.9953 16.8892 11.247 16.5871L16.9304 9.76702C17.0272 9.65086 17.0663 9.49714 17.0366 9.34887L16.7659 7.99515C16.754 7.93593 16.6668 7.94456 16.6668 8.00495V8.75L10.845 15.7362C10.5859 16.0472 10.1648 16.1712 9.77848 16.0505L4.56206 14.4204C4.04328 14.2583 3.61283 13.892 3.36976 13.4059L3.23355 13.1334C3.02526 12.7169 2.91683 12.2575 2.91683 11.7918V10.8333L10.2181 12.7547C10.5936 12.8535 10.9923 12.7261 11.2409 12.4278L16.913 5.62125C17.0232 5.48906 17.0835 5.32243 17.0835 5.15036V5.15036C17.0835 4.81622 16.8583 4.52406 16.5351 4.43903L9.16683 2.5Z" fill="black" stroke="black"/>
</svg>
