<svg width="20" height="20" viewBox="0 0 20 20" fill="none" xmlns="http://www.w3.org/2000/svg">
<path fill-rule="evenodd" clip-rule="evenodd" d="M2.0835 10.7987C2.0835 10.5527 2.1742 10.3153 2.33826 10.1319L9.16683 2.5L16.5351 4.43903C16.8583 4.52406 17.0835 4.81622 17.0835 5.15036V5.15036C17.0835 5.32243 17.0232 5.48906 16.913 5.62125L11.2409 12.4278C10.9923 12.7261 10.5936 12.8535 10.2181 12.7547L2.91683 10.8333V11.7918C2.91683 12.2575 3.02526 12.7169 3.23355 13.1334L3.36976 13.4059C3.61283 13.892 4.04328 14.2583 4.56206 14.4204L9.77848 16.0505C10.1648 16.1712 10.5859 16.0472 10.845 15.7362L16.6668 8.75V8.00495C16.6668 7.94456 16.754 7.93593 16.7659 7.99515L17.0366 9.34887C17.0663 9.49714 17.0272 9.65086 16.9304 9.76702L11.247 16.5871C10.9953 16.8892 10.59 17.0157 10.2111 16.9105L3.98963 15.1823C3.5642 15.0641 3.18983 14.8085 2.92491 14.4552L2.8835 14.4C2.36421 13.7076 2.0835 12.8655 2.0835 12V10.7987ZM9.16683 3.33333L3.3335 10L10.8335 12.0833L16.6668 5L9.16683 3.33333Z" fill="black" stroke="black"/>
</svg>
