<svg width="30" height="31" viewBox="0 0 30 31" fill="none" xmlns="http://www.w3.org/2000/svg">
<g clip-path="url(#clip0_770_546)">
<g filter="url(#filter0_d_770_546)">
<path d="M2 11C2 6.58172 5.58172 3 10 3H18C22.4183 3 26 6.58172 26 11V19C26 23.4183 22.4183 27 18 27H10C5.58172 27 2 23.4183 2 19V11Z" fill="#2E81E4"/>
<path d="M13.9998 21.6666C15.0232 21.1873 17.1996 19.6017 18.5865 17.5743C19.3201 16.4979 19.8332 15.2994 19.8332 14.0716V10.3228C19.8332 10.1942 19.7371 10.09 19.6162 10.09H18.6802C16.5849 10.09 16.5327 8.33325 13.9998 8.33325M13.9998 21.6666C12.9764 21.1873 10.7997 19.6021 9.41318 17.574C8.67953 16.4979 8.1665 15.2994 8.1665 14.0716V10.3228C8.1665 10.1942 8.26253 10.09 8.38348 10.09H9.31948C11.4148 10.09 11.4669 8.33325 13.9998 8.33325M13.9998 21.6666V8.33325M19.785 14.7206H8.21468" stroke="white" stroke-width="1.5" stroke-linecap="round" stroke-linejoin="round"/>
</g>
</g>
<defs>
<filter id="filter0_d_770_546" x="-4" y="-3" width="40" height="40" filterUnits="userSpaceOnUse" color-interpolation-filters="sRGB">
<feFlood flood-opacity="0" result="BackgroundImageFix"/>
<feColorMatrix in="SourceAlpha" type="matrix" values="0 0 0 0 0 0 0 0 0 0 0 0 0 0 0 0 0 0 127 0" result="hardAlpha"/>
<feOffset dx="2" dy="2"/>
<feGaussianBlur stdDeviation="4"/>
<feComposite in2="hardAlpha" operator="out"/>
<feColorMatrix type="matrix" values="0 0 0 0 0 0 0 0 0 0 0 0 0 0 0 0 0 0 0.1 0"/>
<feBlend mode="normal" in2="BackgroundImageFix" result="effect1_dropShadow_770_546"/>
<feBlend mode="normal" in="SourceGraphic" in2="effect1_dropShadow_770_546" result="shape"/>
</filter>
<clipPath id="clip0_770_546">
<rect width="32" height="32" fill="white" transform="translate(-2 -1)"/>
</clipPath>
</defs>
</svg>
