<svg width="20" height="20" viewBox="0 0 20 20" fill="none" xmlns="http://www.w3.org/2000/svg">
<path d="M8.1666 5.25935C7.68039 5.74556 7.40724 6.40499 7.40724 7.09259C7.40724 7.78019 7.68039 8.43963 8.1666 8.92583C8.30029 9.05953 8.39163 9.17711 8.48984 9.27734C8.68406 9.47557 8.83051 9.76394 8.72799 10.0218C8.71177 10.0626 8.69028 10.1011 8.66034 10.1332C8.53175 10.2712 8.11568 10.6481 7.40724 10.6481C6.54006 10.6481 5.72345 10.9896 5.11569 11.5973C4.50794 12.2051 4.1665 13.0294 4.1665 13.8889C4.1665 14.4046 4.37136 14.8992 4.73602 15.2638C5.10067 15.6285 5.59525 15.8333 6.11095 15.8333H13.8887C14.4044 15.8333 14.899 15.6285 15.2637 15.2638C15.6283 14.8992 15.8332 14.4046 15.8332 13.8889C15.8332 13.0294 15.4917 12.2051 14.884 11.5973C14.2762 10.9896 13.4631 10.6481 12.5924 10.6481C11.8803 10.6481 11.4659 10.2703 11.3386 10.1327C11.3091 10.1008 11.288 10.0629 11.272 10.0226C11.1693 9.7643 11.316 9.47538 11.5104 9.27673C11.6084 9.17664 11.6997 9.05926 11.8331 8.92583C12.3193 8.43963 12.5924 7.78019 12.5924 7.09259C12.5924 6.40499 12.3193 5.74556 11.8331 5.25935C11.3469 4.77315 10.6874 4.5 9.99984 4.5C9.31224 4.5 8.6528 4.77315 8.1666 5.25935Z" stroke="black" stroke-width="1.5"/>
</svg>
