<svg width="20" height="20" viewBox="0 0 20 20" fill="none" xmlns="http://www.w3.org/2000/svg">
<path fill-rule="evenodd" clip-rule="evenodd" d="M7.40724 6.75934C7.40724 6.07174 7.68039 5.41231 8.1666 4.9261C8.6528 4.4399 9.31224 4.16675 9.99984 4.16675C10.6874 4.16675 11.3469 4.4399 11.8331 4.9261C12.3193 5.41231 12.5924 6.07174 12.5924 6.75934C12.5924 7.44694 12.3193 8.10637 11.8331 8.59258C11.3469 9.07879 10.6874 9.35193 9.99984 9.35193C9.31224 9.35193 8.6528 9.07879 8.1666 8.59258C7.68039 8.10637 7.40724 7.44694 7.40724 6.75934ZM7.40724 10.6482C6.54775 10.6482 5.72345 10.9897 5.11569 11.5974C4.50794 12.2052 4.1665 13.0295 4.1665 13.889C4.1665 14.4047 4.37136 14.8992 4.73602 15.2639C5.10067 15.6286 5.59525 15.8334 6.11095 15.8334H13.8887C14.4044 15.8334 14.899 15.6286 15.2637 15.2639C15.6283 14.8992 15.8332 14.4047 15.8332 13.889C15.8332 13.0295 15.4917 12.2052 14.884 11.5974C14.2762 10.9897 13.4519 10.6482 12.5924 10.6482H7.40724Z" fill="black"/>
</svg>
